<svg width="1660" height="620" viewBox="0 0 1660 620" fill="none" xmlns="http://www.w3.org/2000/svg">
<rect width="1660" height="620" fill="#4F4F4F"/>
<rect width="100" height="100" transform="translate(175 180)" fill="#B0B0B0"/>
<path d="M230.91 258V250L231.01 243.75H230.01L230.91 242.7C230.91 244.767 230.226 246.417 228.86 247.65C227.493 248.883 225.676 249.5 223.41 249.5C220.643 249.5 218.443 248.583 216.81 246.75C215.21 244.917 214.41 242.417 214.41 239.25V231.2C214.41 228.033 215.226 225.55 216.86 223.75C218.493 221.917 220.676 221 223.41 221C225.676 221 227.493 221.617 228.86 222.85C230.226 224.05 230.91 225.7 230.91 227.8L230.01 226.75H230.91V221.5H235.41V258H230.91ZM224.91 245.6C226.776 245.6 228.243 245.017 229.31 243.85C230.376 242.683 230.91 241.067 230.91 239V231.5C230.91 229.433 230.376 227.817 229.31 226.65C228.243 225.483 226.776 224.9 224.91 224.9C223.01 224.9 221.526 225.467 220.46 226.6C219.426 227.733 218.91 229.367 218.91 231.5V239C218.91 241.133 219.426 242.767 220.46 243.9C221.526 245.033 223.01 245.6 224.91 245.6Z" fill="#0F0F0F"/>
<rect width="100" height="100" transform="translate(120 70)" fill="#B0B0B0"/>
<path d="M159.51 139V134.9H169.41V106.25L159.51 113.65V108.65L167.76 102.5H173.91V134.9H182.01V139H159.51Z" fill="#0F0F0F"/>
<rect width="100" height="100" transform="translate(10 70)" fill="#0F0F0F"/>
<rect width="100" height="50" transform="translate(10 10)" fill="#B0B0B0"/>
<path d="M45.5146 44.25C44.4313 44.25 43.4813 44.0333 42.6646 43.6C41.8646 43.1667 41.2396 42.5583 40.7896 41.775C40.3563 40.975 40.1396 40.05 40.1396 39V35.25C40.1396 34.1833 40.3563 33.2583 40.7896 32.475C41.2396 31.6917 41.8646 31.0833 42.6646 30.65C43.4813 30.2167 44.4313 30 45.5146 30C46.598 30 47.5396 30.2167 48.3396 30.65C49.1563 31.0833 49.7813 31.6917 50.2146 32.475C50.6646 33.2583 50.8896 34.1833 50.8896 35.25V37.675H42.3396V39C42.3396 40.0833 42.6146 40.9167 43.1646 41.5C43.7146 42.0667 44.498 42.35 45.5146 42.35C46.3813 42.35 47.0813 42.2 47.6146 41.9C48.148 41.5833 48.473 41.1167 48.5896 40.5H50.8396C50.6896 41.65 50.123 42.5667 49.1396 43.25C48.173 43.9167 46.9646 44.25 45.5146 44.25ZM48.6896 36.175V35.25C48.6896 34.1667 48.4146 33.3333 47.8646 32.75C47.3313 32.1667 46.548 31.875 45.5146 31.875C44.498 31.875 43.7146 32.1667 43.1646 32.75C42.6146 33.3333 42.3396 34.1667 42.3396 35.25V35.975H48.8646L48.6896 36.175ZM60.0799 44.2C59.1465 44.2 58.3299 44.0583 57.6299 43.775C56.9465 43.475 56.3965 43.0583 55.9799 42.525C55.5799 41.9917 55.3382 41.3583 55.2549 40.625H57.5049C57.6049 41.1083 57.8715 41.4917 58.3049 41.775C58.7549 42.0583 59.3465 42.2 60.0799 42.2H61.1299C62.0132 42.2 62.6715 42.025 63.1049 41.675C63.5382 41.3083 63.7549 40.825 63.7549 40.225C63.7549 39.6417 63.5549 39.1833 63.1549 38.85C62.7715 38.5 62.1965 38.2667 61.4299 38.15L59.5799 37.85C58.2299 37.6167 57.2215 37.2 56.5549 36.6C55.9049 35.9833 55.5799 35.0917 55.5799 33.925C55.5799 32.6917 55.9715 31.7417 56.7549 31.075C57.5382 30.3917 58.7132 30.05 60.2799 30.05H61.2299C62.5466 30.05 63.6049 30.3583 64.4049 30.975C65.2049 31.5917 65.6882 32.425 65.8549 33.475H63.6049C63.5049 33.0417 63.2549 32.7 62.8549 32.45C62.4549 32.1833 61.9132 32.05 61.2299 32.05H60.2799C59.4299 32.05 58.8049 32.2083 58.4049 32.525C58.0215 32.8417 57.8299 33.3167 57.8299 33.95C57.8299 34.5167 57.9965 34.9333 58.3299 35.2C58.6632 35.4667 59.1882 35.6583 59.9049 35.775L61.7549 36.075C63.2382 36.3083 64.3132 36.7417 64.9799 37.375C65.6632 38.0083 66.0049 38.925 66.0049 40.125C66.0049 41.3917 65.5966 42.3917 64.7799 43.125C63.9799 43.8417 62.7632 44.2 61.1299 44.2H60.0799ZM75.5951 44.25C74.4951 44.25 73.5285 44.0417 72.6951 43.625C71.8785 43.2083 71.2451 42.6083 70.7951 41.825C70.3451 41.025 70.1201 40.0833 70.1201 39V35.25C70.1201 34.15 70.3451 33.2083 70.7951 32.425C71.2451 31.6417 71.8785 31.0417 72.6951 30.625C73.5285 30.2083 74.4951 30 75.5951 30C77.1785 30 78.4535 30.425 79.4201 31.275C80.3868 32.125 80.8951 33.2833 80.9451 34.75H78.6951C78.6451 33.8667 78.3451 33.1917 77.7951 32.725C77.2618 32.2417 76.5285 32 75.5951 32C74.6118 32 73.8285 32.2833 73.2451 32.85C72.6618 33.4 72.3701 34.1917 72.3701 35.225V39C72.3701 40.0333 72.6618 40.8333 73.2451 41.4C73.8285 41.9667 74.6118 42.25 75.5951 42.25C76.5285 42.25 77.2618 42.0083 77.7951 41.525C78.3451 41.0417 78.6451 40.3667 78.6951 39.5H80.9451C80.8951 40.9667 80.3868 42.125 79.4201 42.975C78.4535 43.825 77.1785 44.25 75.5951 44.25Z" fill="#0F0F0F"/>
<rect width="100" height="50" transform="translate(120 10)" fill="#0F0F0F"/>
<rect width="100" height="50" transform="translate(560 10)" fill="#0F0F0F"/>
<rect width="100" height="50" transform="translate(1000 10)" fill="#0F0F0F"/>
<rect width="100" height="50" transform="translate(340 10)" fill="#0F0F0F"/>
<rect width="100" height="50" transform="translate(780 10)" fill="#0F0F0F"/>
<rect width="100" height="50" transform="translate(1220 10)" fill="#0F0F0F"/>
<rect width="100" height="50" transform="translate(1440 10)" fill="#0F0F0F"/>
<rect width="100" height="50" transform="translate(230 10)" fill="#0F0F0F"/>
<rect width="100" height="50" transform="translate(670 10)" fill="#0F0F0F"/>
<rect width="100" height="50" transform="translate(1110 10)" fill="#0F0F0F"/>
<rect width="100" height="50" transform="translate(450 10)" fill="#0F0F0F"/>
<rect width="100" height="50" transform="translate(890 10)" fill="#0F0F0F"/>
<rect width="100" height="50" transform="translate(1330 10)" fill="#0F0F0F"/>
<rect width="100" height="50" transform="translate(1550 10)" fill="#0F0F0F"/>
<rect width="155" height="100" transform="translate(10 180)" fill="#0F0F0F"/>
<rect width="210" height="100" transform="translate(10 290)" fill="#0F0F0F"/>
<rect width="265" height="100" transform="translate(10 400)" fill="#B0B0B0"/>
<path d="M112.099 459.2C111.166 459.2 110.349 459.058 109.649 458.775C108.966 458.475 108.416 458.058 107.999 457.525C107.599 456.992 107.358 456.358 107.274 455.625H109.524C109.624 456.108 109.891 456.492 110.324 456.775C110.774 457.058 111.366 457.2 112.099 457.2H113.149C114.033 457.2 114.691 457.025 115.124 456.675C115.558 456.308 115.774 455.825 115.774 455.225C115.774 454.642 115.574 454.183 115.174 453.85C114.791 453.5 114.216 453.267 113.449 453.15L111.599 452.85C110.249 452.617 109.241 452.2 108.574 451.6C107.924 450.983 107.599 450.092 107.599 448.925C107.599 447.692 107.991 446.742 108.774 446.075C109.558 445.392 110.733 445.05 112.299 445.05H113.249C114.566 445.05 115.624 445.358 116.424 445.975C117.224 446.592 117.708 447.425 117.874 448.475H115.624C115.524 448.042 115.274 447.7 114.874 447.45C114.474 447.183 113.933 447.05 113.249 447.05H112.299C111.449 447.05 110.824 447.208 110.424 447.525C110.041 447.842 109.849 448.317 109.849 448.95C109.849 449.517 110.016 449.933 110.349 450.2C110.683 450.467 111.208 450.658 111.924 450.775L113.774 451.075C115.258 451.308 116.333 451.742 116.999 452.375C117.683 453.008 118.024 453.925 118.024 455.125C118.024 456.392 117.616 457.392 116.799 458.125C115.999 458.842 114.783 459.2 113.149 459.2H112.099ZM122.315 459V440.75H124.565V445.25V447.875H125.04L124.565 448.4C124.565 447.317 124.89 446.483 125.54 445.9C126.19 445.3 127.09 445 128.24 445C129.623 445 130.723 445.425 131.54 446.275C132.356 447.125 132.765 448.283 132.765 449.75V459H130.515V450C130.515 449.017 130.248 448.258 129.715 447.725C129.198 447.175 128.49 446.9 127.59 446.9C126.656 446.9 125.915 447.192 125.365 447.775C124.831 448.358 124.565 449.183 124.565 450.25V459H122.315ZM137.13 459V456.95H142.005V447.3H137.755V445.25H144.255V456.95H148.88V459H137.13ZM142.88 442.775C142.33 442.775 141.897 442.633 141.58 442.35C141.263 442.067 141.105 441.683 141.105 441.2C141.105 440.7 141.263 440.308 141.58 440.025C141.897 439.725 142.33 439.575 142.88 439.575C143.43 439.575 143.863 439.725 144.18 440.025C144.497 440.308 144.655 440.7 144.655 441.2C144.655 441.683 144.497 442.067 144.18 442.35C143.863 442.633 143.43 442.775 142.88 442.775ZM155.495 459V448.675H151.495V446.625H155.495V444.25C155.495 443.167 155.837 442.317 156.52 441.7C157.203 441.067 158.145 440.75 159.345 440.75H163.37V442.8H159.345C158.828 442.8 158.428 442.925 158.145 443.175C157.878 443.408 157.745 443.767 157.745 444.25V446.625H163.37V448.675H157.745V459H155.495ZM173.985 459C172.802 459 171.877 458.683 171.21 458.05C170.56 457.417 170.235 456.525 170.235 455.375V447.3H166.36V445.25H170.235V441.375H172.485V445.25H177.985V447.3H172.485V455.375C172.485 456.425 172.985 456.95 173.985 456.95H177.735V459H173.985Z" fill="#0F0F0F"/>
<rect width="100" height="100" transform="translate(230 290)" fill="#0F0F0F"/>
<rect width="100" height="100" transform="translate(285 400)" fill="#B0B0B0"/>
<path d="M324.51 469V464.5L339.91 445.6H324.91V441.5H344.96V446L329.26 464.9H345.51V469H324.51Z" fill="#0F0F0F"/>
<rect width="155" height="100" transform="translate(120 510)" fill="#B0B0B0"/>
<path d="M175.62 569.25C174.52 569.25 173.553 569.042 172.72 568.625C171.903 568.208 171.27 567.608 170.82 566.825C170.37 566.025 170.145 565.083 170.145 564V560.25C170.145 559.15 170.37 558.208 170.82 557.425C171.27 556.642 171.903 556.042 172.72 555.625C173.553 555.208 174.52 555 175.62 555C177.203 555 178.478 555.425 179.445 556.275C180.411 557.125 180.92 558.283 180.97 559.75H178.72C178.67 558.867 178.37 558.192 177.82 557.725C177.286 557.242 176.553 557 175.62 557C174.636 557 173.853 557.283 173.27 557.85C172.686 558.4 172.395 559.192 172.395 560.225V564C172.395 565.033 172.686 565.833 173.27 566.4C173.853 566.967 174.636 567.25 175.62 567.25C176.553 567.25 177.286 567.008 177.82 566.525C178.37 566.042 178.67 565.367 178.72 564.5H180.97C180.92 565.967 180.411 567.125 179.445 567.975C178.478 568.825 177.203 569.25 175.62 569.25ZM192.01 569C190.826 569 189.901 568.683 189.235 568.05C188.585 567.417 188.26 566.525 188.26 565.375V557.3H184.385V555.25H188.26V551.375H190.51V555.25H196.01V557.3H190.51V565.375C190.51 566.425 191.01 566.95 192.01 566.95H195.76V569H192.01ZM200.775 569V555.25H202.975V557.875H203.5L202.775 559.5C202.775 558.017 203.092 556.9 203.725 556.15C204.375 555.383 205.333 555 206.6 555C208.05 555 209.2 555.458 210.05 556.375C210.917 557.275 211.35 558.5 211.35 560.05V560.875H209.1V560.25C209.1 559.167 208.833 558.342 208.3 557.775C207.783 557.192 207.042 556.9 206.075 556.9C205.125 556.9 204.375 557.192 203.825 557.775C203.292 558.358 203.025 559.183 203.025 560.25V569H200.775ZM222.365 569C221.565 569 220.865 568.842 220.265 568.525C219.665 568.208 219.199 567.758 218.865 567.175C218.532 566.592 218.365 565.908 218.365 565.125V552.8H213.74V550.75H220.615V565.125C220.615 565.692 220.774 566.142 221.09 566.475C221.407 566.792 221.832 566.95 222.365 566.95H226.74V569H222.365Z" fill="#0F0F0F"/>
<rect width="100" height="100" transform="translate(395 510)" fill="#B0B0B0"/>
<path d="M429.315 569.25C427.865 569.25 426.723 568.883 425.89 568.15C425.056 567.4 424.64 566.392 424.64 565.125C424.64 563.842 425.056 562.833 425.89 562.1C426.723 561.367 427.848 561 429.265 561H433.515V559.625C433.515 558.775 433.256 558.125 432.74 557.675C432.24 557.208 431.523 556.975 430.59 556.975C429.773 556.975 429.09 557.15 428.54 557.5C427.99 557.833 427.673 558.292 427.59 558.875H425.34C425.49 557.692 426.048 556.75 427.015 556.05C427.981 555.35 429.19 555 430.64 555C432.223 555 433.473 555.408 434.39 556.225C435.306 557.042 435.765 558.15 435.765 559.55V569H433.565V566.375H433.19L433.565 566C433.565 567 433.173 567.792 432.39 568.375C431.623 568.958 430.598 569.25 429.315 569.25ZM429.865 567.475C430.931 567.475 431.806 567.208 432.49 566.675C433.173 566.142 433.515 565.458 433.515 564.625V562.675H429.315C428.565 562.675 427.973 562.883 427.54 563.3C427.106 563.717 426.89 564.283 426.89 565C426.89 565.767 427.148 566.375 427.665 566.825C428.198 567.258 428.931 567.475 429.865 567.475ZM447.38 569C446.58 569 445.88 568.842 445.28 568.525C444.68 568.208 444.213 567.758 443.88 567.175C443.547 566.592 443.38 565.908 443.38 565.125V552.8H438.755V550.75H445.63V565.125C445.63 565.692 445.788 566.142 446.105 566.475C446.422 566.792 446.847 566.95 447.38 566.95H451.755V569H447.38ZM461.995 569C460.812 569 459.887 568.683 459.22 568.05C458.57 567.417 458.245 566.525 458.245 565.375V557.3H454.37V555.25H458.245V551.375H460.495V555.25H465.995V557.3H460.495V565.375C460.495 566.425 460.995 566.95 461.995 566.95H465.745V569H461.995Z" fill="#0F0F0F"/>
<rect width="540" height="100" transform="translate(505 510)" fill="#0F0F0F"/>
<rect width="100" height="100" transform="translate(10 510)" fill="#0F0F0F"/>
<rect width="100" height="100" transform="translate(285 510)" fill="#D4B383"/>
<g clip-path="url(#clip0_78_577)">
<path d="M362.672 582.105C362.672 582.104 362.671 582.103 362.671 582.103C362.168 581.505 361.928 580.398 361.67 579.218C361.414 578.039 361.126 576.767 360.206 575.943C360.205 575.941 360.202 575.94 360.2 575.938C360.018 575.77 359.831 575.629 359.643 575.511C359.454 575.393 359.262 575.298 359.071 575.222C360.35 571.231 359.848 567.257 358.557 563.666C356.974 559.259 354.209 555.419 352.096 552.792C349.732 549.654 347.42 546.675 347.466 542.274C347.536 535.558 348.168 523.104 336.938 523.087C336.481 523.086 336.005 523.106 335.508 523.148C322.959 524.211 326.288 538.165 326.101 542.837C325.872 546.253 325.214 548.946 322.981 552.287C320.358 555.569 316.664 560.883 314.915 566.415C314.089 569.025 313.697 571.685 314.059 574.204C313.945 574.311 313.837 574.424 313.734 574.539C312.964 575.405 312.395 576.453 311.761 577.159C311.168 577.781 310.325 578.018 309.397 578.367C308.469 578.718 307.45 579.234 306.832 580.483C306.832 580.483 306.832 580.484 306.831 580.484C306.83 580.486 306.829 580.488 306.828 580.49C306.537 581.061 306.443 581.678 306.443 582.303C306.443 582.881 306.524 583.467 306.606 584.032C306.776 585.205 306.95 586.315 306.72 587.067C305.986 589.18 305.891 590.641 306.409 591.702C306.927 592.764 307.992 593.232 309.196 593.497C311.604 594.026 314.865 593.895 317.435 595.329L317.656 594.89L317.437 595.33C320.188 596.844 322.977 597.381 325.202 596.846C326.817 596.459 328.126 595.447 328.799 593.892C330.539 593.883 332.449 593.107 335.508 592.93C337.584 592.753 340.177 593.706 343.159 593.531C343.237 593.871 343.35 594.199 343.504 594.511C343.506 594.513 343.507 594.517 343.509 594.519C344.665 596.953 346.813 598.065 349.102 597.875C351.394 597.685 353.831 596.263 355.802 593.796L355.441 593.476L355.805 593.792C357.682 591.396 360.799 590.402 362.866 589.091C363.9 588.435 364.738 587.613 364.803 586.42C364.867 585.228 364.202 583.892 362.672 582.105Z" fill="#0F0F0F"/>
<path d="M363.86 586.364C363.82 587.1 363.314 587.647 362.378 588.24C360.509 589.426 357.195 590.459 355.079 593.156C353.241 595.458 351.001 596.722 349.028 596.885C347.055 597.049 345.353 596.188 344.348 594.068L344.347 594.063L344.344 594.058C343.721 592.811 343.98 590.844 344.505 588.769C345.029 586.694 345.783 584.563 345.885 582.832V582.826C345.991 580.608 346.109 578.67 346.463 577.174C346.818 575.679 347.375 574.667 348.363 574.098C348.409 574.071 348.455 574.046 348.501 574.023C348.613 575.944 349.517 577.904 351.114 578.328C352.863 578.813 355.383 577.235 356.447 575.946C356.659 575.938 356.867 575.926 357.068 575.921C358.002 575.897 358.784 575.954 359.585 576.69L359.587 576.693L359.59 576.695C360.204 577.243 360.497 578.279 360.751 579.439C361.004 580.6 361.206 581.864 361.967 582.764L361.968 582.765L361.969 582.767C363.431 584.474 363.9 585.627 363.86 586.364Z" fill="#D4B383"/>
<path d="M328.331 591.804L328.331 591.809V591.815C328.161 594.147 326.912 595.417 324.993 595.878C323.075 596.34 320.474 595.88 317.877 594.451C317.876 594.451 317.875 594.45 317.875 594.45C315.001 592.848 311.583 593.007 309.389 592.525C308.293 592.284 307.577 591.922 307.249 591.248C306.921 590.574 306.913 589.399 307.611 587.396L307.614 587.387L307.617 587.379C307.962 586.258 307.706 585.032 307.539 583.881C307.371 582.731 307.289 581.683 307.663 580.954L307.666 580.947C308.145 579.977 308.846 579.63 309.716 579.302C310.587 578.973 311.618 578.715 312.433 577.855L312.438 577.851L312.442 577.847C313.195 577.01 313.761 575.961 314.423 575.217C314.982 574.589 315.541 574.173 316.384 574.167C316.394 574.168 316.403 574.168 316.413 574.167C316.56 574.168 316.717 574.181 316.883 574.208C318.001 574.386 318.977 575.21 319.916 576.551L322.629 581.755L322.63 581.757L322.632 581.759C323.354 583.345 324.878 585.09 326.17 586.87C327.462 588.649 328.461 590.436 328.331 591.804Z" fill="#D4B383"/>
<path d="M341.862 543.293C341.644 542.844 341.199 542.416 340.441 542.089L340.44 542.088L340.437 542.088C338.862 541.378 338.178 541.327 337.299 540.725C335.868 539.757 334.685 539.418 333.703 539.422C333.188 539.424 332.728 539.52 332.316 539.67C331.119 540.104 330.324 541.008 329.826 541.504L329.825 541.505C329.825 541.506 329.825 541.506 329.825 541.507C329.727 541.604 329.601 541.693 329.296 541.929C328.988 542.165 328.528 542.521 327.865 543.044C327.276 543.509 327.084 544.114 327.288 544.823C327.491 545.532 328.141 546.35 329.329 547.058L329.331 547.059L329.333 547.06C330.071 547.516 330.574 548.131 331.153 548.62C331.442 548.865 331.746 549.083 332.112 549.247C332.479 549.412 332.906 549.524 333.442 549.557C334.698 549.634 335.623 549.237 336.439 548.745C337.257 548.254 337.949 547.653 338.744 547.382L338.746 547.381L338.748 547.38C340.377 546.845 341.538 545.766 341.902 544.741C342.084 544.229 342.079 543.742 341.862 543.293Z" fill="#D4B383"/>
<path d="M337.728 545.823C336.432 546.534 334.918 547.397 333.307 547.397C331.697 547.397 330.425 546.614 329.511 545.851C329.053 545.469 328.682 545.09 328.402 544.814C327.916 544.411 327.974 543.845 328.174 543.861C328.508 543.905 328.559 544.369 328.77 544.576C329.055 544.857 329.412 545.221 329.844 545.582C330.71 546.303 331.863 547.005 333.307 547.005C334.749 547.005 336.432 546.114 337.46 545.508C338.042 545.164 338.782 544.548 339.387 544.081C339.849 543.724 339.833 543.294 340.214 543.341C340.596 543.388 340.314 543.817 339.779 544.308C339.244 544.799 338.408 545.451 337.728 545.823Z" fill="#0F0F0F"/>
<path d="M357.574 574.93C357.395 574.923 357.217 574.924 357.045 574.929C357.029 574.93 357.013 574.93 356.997 574.93C357.442 573.451 356.457 572.36 353.834 571.111C351.113 569.851 348.946 569.976 348.579 572.531C348.556 572.665 348.537 572.802 348.523 572.939C348.319 573.014 348.115 573.109 347.91 573.226C346.633 573.962 345.935 575.297 345.547 576.935C345.16 578.571 345.049 580.548 344.943 582.771C344.943 582.772 344.943 582.772 344.943 582.772C344.877 583.89 344.44 585.402 343.997 587.003C339.541 590.349 333.355 591.799 328.103 588.026C327.748 587.434 327.339 586.847 326.919 586.268C326.651 585.898 326.375 585.531 326.101 585.168C326.64 585.169 327.098 585.076 327.469 584.9C327.929 584.679 328.253 584.327 328.413 583.873C328.733 582.967 328.412 581.688 327.387 580.228C326.362 578.768 324.626 577.12 322.075 575.474C322.075 575.474 322.075 575.474 322.075 575.473C320.201 574.246 319.153 572.742 318.663 571.11C318.171 569.476 318.24 567.71 318.619 565.967C319.345 562.621 321.209 559.366 322.399 557.324C322.719 557.076 322.513 557.784 321.194 560.362C320.013 562.719 317.802 568.157 320.828 572.402C320.909 569.381 321.594 566.3 322.745 563.418C324.422 559.42 327.928 552.484 328.206 546.956C328.35 547.066 328.843 547.417 329.063 547.549C329.064 547.549 329.064 547.549 329.065 547.549C329.708 547.948 330.191 548.531 330.816 549.06C331.444 549.59 332.227 550.048 333.41 550.12C333.524 550.127 333.635 550.131 333.743 550.131C334.963 550.131 335.914 549.712 336.707 549.235C337.568 548.717 338.255 548.143 338.908 547.92C338.908 547.919 338.909 547.919 338.91 547.919C340.288 547.466 341.383 546.663 342.006 545.729C343.076 550.169 345.566 556.583 347.166 559.713C348.017 561.374 349.709 564.902 350.44 569.154C350.903 569.139 351.414 569.21 351.96 569.357C353.871 564.141 350.339 558.524 348.723 556.959C348.071 556.293 348.039 555.995 348.363 556.009C350.115 557.64 352.416 560.92 353.253 564.623C353.635 566.311 353.716 568.087 353.307 569.839C353.507 569.926 353.71 570.021 353.917 570.124C356.985 571.697 358.12 573.064 357.574 574.93Z" fill="#D4B383"/>
<path d="M342.006 538.177C342.012 539.057 341.868 539.806 341.551 540.571C341.37 541.007 341.162 541.373 340.913 541.691C340.828 541.648 340.74 541.607 340.649 541.568C340.334 541.426 340.054 541.309 339.804 541.209C339.554 541.11 339.358 541.042 339.157 540.969C339.303 540.783 339.59 540.564 339.697 540.289C339.86 539.875 339.939 539.47 339.954 538.988C339.954 538.969 339.96 538.952 339.96 538.93C339.969 538.468 339.911 538.072 339.783 537.668C339.648 537.243 339.478 536.938 339.231 536.684C338.983 536.43 338.736 536.315 338.439 536.305C338.425 536.304 338.412 536.304 338.398 536.304C338.12 536.305 337.878 536.406 337.627 536.626C337.365 536.857 337.17 537.152 337.008 537.564C336.846 537.976 336.766 538.384 336.751 538.869C336.748 538.888 336.748 538.904 336.748 538.924C336.742 539.19 336.759 539.435 336.798 539.672C336.228 539.373 335.498 539.155 334.995 539.028C334.966 538.799 334.949 538.562 334.944 538.315V538.248C334.935 537.37 335.072 536.618 335.392 535.854C335.713 535.089 336.11 534.54 336.668 534.092C337.228 533.646 337.777 533.441 338.428 533.434H338.458C339.095 533.434 339.639 533.631 340.198 534.057C340.766 534.492 341.175 535.034 341.505 535.793C341.828 536.532 341.984 537.255 342 538.112C342 538.135 342 538.154 342.006 538.177Z" fill="#D4B383"/>
<path d="M332.387 539.053C332.303 539.079 332.222 539.106 332.141 539.135C331.686 539.3 331.324 539.483 330.974 539.726C331.008 539.472 331.013 539.214 330.987 538.925C330.984 538.909 330.984 538.896 330.984 538.881C330.948 538.498 330.871 538.177 330.742 537.852C330.605 537.515 330.452 537.277 330.251 537.094C330.068 536.928 329.896 536.851 329.706 536.853C329.686 536.853 329.667 536.854 329.647 536.856C329.433 536.875 329.256 536.985 329.087 537.2C328.92 537.415 328.81 537.681 328.73 538.035C328.651 538.389 328.63 538.736 328.663 539.134C328.663 539.15 328.666 539.163 328.666 539.179C328.703 539.565 328.777 539.886 328.908 540.21C329.042 540.544 329.198 540.783 329.399 540.966C329.433 540.996 329.466 541.024 329.499 541.049C329.29 541.219 329.15 541.339 328.978 541.472C328.867 541.556 328.737 541.658 328.584 541.776C328.252 541.448 327.992 541.037 327.765 540.493C327.497 539.851 327.354 539.209 327.31 538.45V538.444C327.271 537.685 327.341 537.033 327.539 536.358C327.738 535.683 328.003 535.194 328.389 534.793C328.773 534.391 329.161 534.189 329.628 534.164C329.665 534.162 329.7 534.161 329.736 534.161C330.159 534.162 330.537 534.31 330.928 534.639C331.353 534.996 331.673 535.452 331.942 536.094C332.211 536.737 332.354 537.38 332.394 538.139V538.145C332.413 538.463 332.411 538.763 332.387 539.053Z" fill="#D4B383"/>
<path d="M334.513 540.868C334.566 541.049 334.844 541.019 335.004 541.106C335.144 541.182 335.258 541.349 335.416 541.354C335.566 541.359 335.801 541.299 335.821 541.142C335.847 540.934 335.558 540.802 335.372 540.725C335.133 540.627 334.827 540.577 334.603 540.709C334.551 540.739 334.495 540.809 334.513 540.868Z" fill="#0F0F0F"/>
<path d="M332.875 540.868C332.821 541.049 332.544 541.019 332.384 541.106C332.243 541.182 332.13 541.349 331.972 541.354C331.821 541.359 331.587 541.299 331.567 541.142C331.541 540.934 331.83 540.802 332.016 540.725C332.255 540.627 332.561 540.577 332.785 540.709C332.836 540.739 332.893 540.809 332.875 540.868Z" fill="#0F0F0F"/>
</g>
<rect width="100" height="100" transform="translate(285 180)" fill="#B0B0B0"/>
<path d="M326.16 249L321.76 221.5H325.76L328.51 241C328.61 241.733 328.71 242.533 328.81 243.4C328.943 244.233 329.043 244.933 329.11 245.5C329.176 244.933 329.276 244.233 329.41 243.4C329.576 242.533 329.71 241.733 329.81 241L332.86 221.5H337.16L340.21 241C340.31 241.733 340.426 242.533 340.56 243.4C340.726 244.233 340.843 244.933 340.91 245.5C340.976 244.933 341.076 244.233 341.21 243.4C341.376 242.533 341.51 241.733 341.61 241L344.46 221.5H348.26L343.66 249H338.71L335.76 230C335.626 229.067 335.476 228.133 335.31 227.2C335.143 226.267 335.026 225.533 334.96 225C334.893 225.533 334.793 226.267 334.66 227.2C334.526 228.133 334.376 229.067 334.21 230L331.11 249H326.16Z" fill="#0F0F0F"/>
<rect width="100" height="100" transform="translate(230 70)" fill="#B0B0B0"/>
<path d="M269.61 139V134.4L280.76 122.55C282.66 120.517 284.043 118.717 284.91 117.15C285.776 115.55 286.21 114.017 286.21 112.55C286.21 110.517 285.643 108.917 284.51 107.75C283.41 106.583 281.893 106 279.96 106C277.826 106 276.143 106.6 274.91 107.8C273.71 109 273.11 110.65 273.11 112.75H268.61C268.676 110.55 269.176 108.65 270.11 107.05C271.076 105.417 272.393 104.167 274.06 103.3C275.76 102.433 277.726 102 279.96 102C282.16 102 284.06 102.433 285.66 103.3C287.293 104.133 288.543 105.333 289.41 106.9C290.276 108.467 290.71 110.333 290.71 112.5C290.71 114.567 290.16 116.617 289.06 118.65C287.96 120.683 286.16 123 283.66 125.6L274.66 134.9H291.31V139H269.61Z" fill="#0F0F0F"/>
<rect width="100" height="100" transform="translate(340 290)" fill="#B0B0B0"/>
<path d="M389.16 359.4C387.293 359.4 385.66 359.117 384.26 358.55C382.893 357.95 381.793 357.117 380.96 356.05C380.16 354.983 379.676 353.717 379.51 352.25H384.01C384.21 353.217 384.743 353.983 385.61 354.55C386.51 355.117 387.693 355.4 389.16 355.4H391.26C393.026 355.4 394.343 355.05 395.21 354.35C396.076 353.617 396.51 352.65 396.51 351.45C396.51 350.283 396.11 349.367 395.31 348.7C394.543 348 393.393 347.533 391.86 347.3L388.16 346.7C385.46 346.233 383.443 345.4 382.11 344.2C380.81 342.967 380.16 341.183 380.16 338.85C380.16 336.383 380.943 334.483 382.51 333.15C384.076 331.783 386.426 331.1 389.56 331.1H391.46C394.093 331.1 396.21 331.717 397.81 332.95C399.41 334.183 400.376 335.85 400.71 337.95H396.21C396.01 337.083 395.51 336.4 394.71 335.9C393.91 335.367 392.826 335.1 391.46 335.1H389.56C387.86 335.1 386.61 335.417 385.81 336.05C385.043 336.683 384.66 337.633 384.66 338.9C384.66 340.033 384.993 340.867 385.66 341.4C386.326 341.933 387.376 342.317 388.81 342.55L392.51 343.15C395.476 343.617 397.626 344.483 398.96 345.75C400.326 347.017 401.01 348.85 401.01 351.25C401.01 353.783 400.193 355.783 398.56 357.25C396.96 358.683 394.526 359.4 391.26 359.4H389.16Z" fill="#0F0F0F"/>
<rect width="100" height="100" transform="translate(395 400)" fill="#0F0F0F"/>
<rect width="100" height="100" transform="translate(395 180)" fill="#0F0F0F"/>
<rect width="100" height="100" transform="translate(340 70)" fill="#B0B0B0"/>
<path d="M389.46 139.5C387.26 139.5 385.326 139.067 383.66 138.2C382.026 137.3 380.76 136.067 379.86 134.5C378.96 132.933 378.51 131.1 378.51 129H383.01C383.01 131.033 383.576 132.633 384.71 133.8C385.876 134.933 387.476 135.5 389.51 135.5C391.576 135.5 393.176 134.9 394.31 133.7C395.443 132.5 396.01 130.933 396.01 129V126.4C396.01 124.333 395.443 122.733 394.31 121.6C393.176 120.467 391.576 119.9 389.51 119.9H385.76V115.4L394.81 106.6H380.01V102.5H399.36V107L389.61 116.45V115.9C392.943 115.9 395.593 116.85 397.56 118.75C399.526 120.65 400.51 123.2 400.51 126.4V129C400.51 131.1 400.043 132.933 399.11 134.5C398.21 136.067 396.926 137.3 395.26 138.2C393.593 139.067 391.66 139.5 389.46 139.5Z" fill="#0F0F0F"/>
<rect width="100" height="100" transform="translate(450 290)" fill="#0F0F0F"/>
<rect width="100" height="100" transform="translate(505 400)" fill="#B0B0B0"/>
<path d="M555.21 469.5C553.01 469.5 551.076 469.083 549.41 468.25C547.776 467.417 546.51 466.217 545.61 464.65C544.71 463.05 544.26 461.167 544.26 459V451.5C544.26 449.3 544.71 447.417 545.61 445.85C546.51 444.283 547.776 443.083 549.41 442.25C551.076 441.417 553.01 441 555.21 441C558.376 441 560.926 441.85 562.86 443.55C564.793 445.25 565.81 447.567 565.91 450.5H561.41C561.31 448.733 560.71 447.383 559.61 446.45C558.543 445.483 557.076 445 555.21 445C553.243 445 551.676 445.567 550.51 446.7C549.343 447.8 548.76 449.383 548.76 451.45V459C548.76 461.067 549.343 462.667 550.51 463.8C551.676 464.933 553.243 465.5 555.21 465.5C557.076 465.5 558.543 465.017 559.61 464.05C560.71 463.083 561.31 461.733 561.41 460H565.91C565.81 462.933 564.793 465.25 562.86 466.95C560.926 468.65 558.376 469.5 555.21 469.5Z" fill="#0F0F0F"/>
<rect width="100" height="100" transform="translate(505 180)" fill="#B0B0B0"/>
<path d="M545.56 249V221.5H549.96V226.75H551.01L549.56 230C549.56 227.033 550.193 224.8 551.46 223.3C552.76 221.767 554.676 221 557.21 221C560.11 221 562.41 221.917 564.11 223.75C565.843 225.55 566.71 228 566.71 231.1V232.75H562.21V231.5C562.21 229.333 561.676 227.683 560.61 226.55C559.576 225.383 558.093 224.8 556.16 224.8C554.26 224.8 552.76 225.383 551.66 226.55C550.593 227.717 550.06 229.367 550.06 231.5V249H545.56Z" fill="#0F0F0F"/>
<rect width="100" height="100" transform="translate(450 70)" fill="#B0B0B0"/>
<path d="M505.51 139V131H489.01V123.95L503.46 102.5H508.36L493.51 124.9V126.9H505.51V118H510.01V139H505.51Z" fill="#0F0F0F"/>
<rect width="100" height="100" transform="translate(560 290)" fill="#B0B0B0"/>
<path d="M606.01 359V338.35H598.01V334.25H606.01V329.5C606.01 327.333 606.693 325.633 608.06 324.4C609.426 323.133 611.31 322.5 613.71 322.5H621.76V326.6H613.71C612.676 326.6 611.876 326.85 611.31 327.35C610.776 327.817 610.51 328.533 610.51 329.5V334.25H621.76V338.35H610.51V359H606.01Z" fill="#0F0F0F"/>
<rect width="100" height="100" transform="translate(615 400)" fill="#B0B0B0"/>
<path d="M661.96 469L652.76 441.5H657.36L663.46 460C663.826 461.1 664.16 462.167 664.46 463.2C664.76 464.2 664.976 464.983 665.11 465.55C665.276 464.983 665.51 464.2 665.81 463.2C666.11 462.167 666.426 461.1 666.76 460L672.71 441.5H677.26L668.06 469H661.96Z" fill="#0F0F0F"/>
<rect width="100" height="100" transform="translate(615 180)" fill="#B0B0B0"/>
<path d="M668.01 249C665.643 249 663.793 248.367 662.46 247.1C661.16 245.833 660.51 244.05 660.51 241.75V225.6H652.76V221.5H660.51V213.75H665.01V221.5H676.01V225.6H665.01V241.75C665.01 243.85 666.01 244.9 668.01 244.9H675.51V249H668.01Z" fill="#0F0F0F"/>
<rect width="100" height="100" transform="translate(560 70)" fill="#0F0F0F"/>
<rect width="100" height="100" transform="translate(670 290)" fill="#0F0F0F"/>
<rect width="100" height="100" transform="translate(725 400)" fill="#B0B0B0"/>
<path d="M776.61 469.5C774.343 469.5 772.526 468.9 771.16 467.7C769.793 466.467 769.11 464.8 769.11 462.7L770.01 463.75H769.11V469H764.61V432.5H769.11V440.5L769.01 446.75H770.01L769.11 447.8C769.11 445.733 769.793 444.083 771.16 442.85C772.56 441.617 774.376 441 776.61 441C779.376 441 781.593 441.917 783.26 443.75C784.926 445.583 785.76 448.083 785.76 451.25V459.3C785.76 462.433 784.926 464.917 783.26 466.75C781.593 468.583 779.376 469.5 776.61 469.5ZM775.11 465.6C777.01 465.6 778.51 465.033 779.61 463.9C780.71 462.767 781.26 461.133 781.26 459V451.5C781.26 449.367 780.71 447.733 779.61 446.6C778.51 445.467 777.01 444.9 775.11 444.9C773.276 444.9 771.81 445.483 770.71 446.65C769.643 447.817 769.11 449.433 769.11 451.5V459C769.11 461.067 769.643 462.683 770.71 463.85C771.81 465.017 773.276 465.6 775.11 465.6Z" fill="#0F0F0F"/>
<rect width="100" height="100" transform="translate(725 180)" fill="#0F0F0F"/>
<rect width="100" height="100" transform="translate(670 70)" fill="#0F0F0F"/>
<rect width="100" height="100" transform="translate(780 290)" fill="#0F0F0F"/>
<rect width="100" height="100" transform="translate(835 400)" fill="#0F0F0F"/>
<rect width="100" height="100" transform="translate(835 180)" fill="#0F0F0F"/>
<rect width="100" height="100" transform="translate(780 70)" fill="#0F0F0F"/>
<rect width="100" height="100" transform="translate(890 290)" fill="#0F0F0F"/>
<rect width="100" height="100" transform="translate(945 400)" fill="#0F0F0F"/>
<rect width="100" height="100" transform="translate(945 180)" fill="#0F0F0F"/>
<rect width="100" height="100" transform="translate(890 70)" fill="#0F0F0F"/>
<rect width="100" height="100" transform="translate(1000 290)" fill="#0F0F0F"/>
<rect width="100" height="100" transform="translate(1055 400)" fill="#0F0F0F"/>
<rect width="100" height="100" transform="translate(1055 510)" fill="#0F0F0F"/>
<rect width="100" height="100" transform="translate(1165 510)" fill="#0F0F0F"/>
<rect width="100" height="100" transform="translate(1275 510)" fill="#0F0F0F"/>
<rect width="210" height="100" transform="translate(1440 70)" fill="#0F0F0F"/>
<rect width="155" height="100" transform="translate(1495 180)" fill="#0F0F0F"/>
<rect width="210" height="100" transform="translate(1440 290)" fill="#0F0F0F"/>
<rect width="265" height="100" transform="translate(1385 400)" fill="#0F0F0F"/>
<rect width="82" height="45" transform="translate(1385 510)" fill="#0F0F0F"/>
<rect width="82" height="45" transform="translate(1385 565)" fill="#B0B0B0"/>
<path fill-rule="evenodd" clip-rule="evenodd" d="M1426 599L1411 587.453L1426 575.906L1426 585.453L1441 585.453L1441 589.453L1426 589.453L1426 599Z" fill="#0F0F0F"/>
<rect width="81" height="45" transform="translate(1477 510)" fill="#B0B0B0"/>
<path fill-rule="evenodd" clip-rule="evenodd" d="M1506 533L1517.55 518L1529.09 533H1519.55L1519.55 548H1515.55L1515.55 533H1506Z" fill="#0F0F0F"/>
<rect width="81" height="45" transform="translate(1477 565)" fill="#B0B0B0"/>
<path fill-rule="evenodd" clip-rule="evenodd" d="M1529 588L1517.45 603L1505.91 588L1515.45 588L1515.45 573L1519.45 573L1519.45 588L1529 588Z" fill="#0F0F0F"/>
<rect width="82" height="45" transform="translate(1568 510)" fill="#0F0F0F"/>
<rect width="82" height="45" transform="translate(1568 565)" fill="#B0B0B0"/>
<path fill-rule="evenodd" clip-rule="evenodd" d="M1609 576L1624 587.547L1609 599.094V589.547L1594 589.547V585.547L1609 585.547V576Z" fill="#0F0F0F"/>
<rect width="100" height="100" transform="translate(1055 180)" fill="#0F0F0F"/>
<rect width="100" height="100" transform="translate(1000 70)" fill="#0F0F0F"/>
<rect width="100" height="100" transform="translate(1110 290)" fill="#0F0F0F"/>
<rect width="100" height="100" transform="translate(1165 400)" fill="#0F0F0F"/>
<rect width="100" height="100" transform="translate(1165 180)" fill="#B0B0B0"/>
<path d="M1204.61 258V221.5H1209.11V226.75H1210.01L1209.11 227.8C1209.11 225.7 1209.79 224.05 1211.16 222.85C1212.56 221.617 1214.39 221 1216.66 221C1219.43 221 1221.63 221.917 1223.26 223.75C1224.93 225.55 1225.76 228.033 1225.76 231.2V239.25C1225.76 241.35 1225.38 243.167 1224.61 244.7C1223.88 246.233 1222.83 247.417 1221.46 248.25C1220.13 249.083 1218.53 249.5 1216.66 249.5C1214.43 249.5 1212.61 248.883 1211.21 247.65C1209.81 246.417 1209.11 244.767 1209.11 242.7L1210.01 243.75H1209.01L1209.11 250V258H1204.61ZM1215.16 245.6C1217.06 245.6 1218.54 245.033 1219.61 243.9C1220.71 242.767 1221.26 241.133 1221.26 239V231.5C1221.26 229.367 1220.71 227.733 1219.61 226.6C1218.54 225.467 1217.06 224.9 1215.16 224.9C1213.33 224.9 1211.86 225.483 1210.76 226.65C1209.66 227.817 1209.11 229.433 1209.11 231.5V239C1209.11 241.067 1209.66 242.683 1210.76 243.85C1211.86 245.017 1213.33 245.6 1215.16 245.6Z" fill="#0F0F0F"/>
<rect width="100" height="100" transform="translate(1110 70)" fill="#0F0F0F"/>
<rect width="100" height="100" transform="translate(1220 290)" fill="#0F0F0F"/>
<rect width="100" height="100" transform="translate(1275 400)" fill="#0F0F0F"/>
<rect width="100" height="100" transform="translate(1275 180)" fill="#0F0F0F"/>
<rect width="100" height="100" transform="translate(1220 70)" fill="#0F0F0F"/>
<rect width="100" height="100" transform="translate(1330 290)" fill="#0F0F0F"/>
<rect width="100" height="100" transform="translate(1385 180)" fill="#0F0F0F"/>
<rect width="100" height="100" transform="translate(1330 70)" fill="#0F0F0F"/>
<defs>
<clipPath id="clip0_78_577">
<rect width="59" height="75" fill="white" transform="translate(306 523)"/>
</clipPath>
</defs>
</svg>
